<svg xmlns="http://www.w3.org/2000/svg" width="16" height="16" fill="none" viewBox="0 0 16 16"><path fill="#000" d="M12.5143 8.49469C12.4012 7.85395 12.0219 7.41709 11.4839 7.1012C11.0362 7.74879 10.805 8.61455 11.2656 9.32647C11.0116 9.44529 10.6011 9.52451 10.2862 9.53892H2.37567C2.16816 9.53892 2 9.70455 2 9.9134C2 12.4195 3.053 13.9507 6.3125 13.9688C9.572 13.9868 11.6682 12.0637 12.2603 9.9782C13.0828 9.9782 13.85 9.61681 14.1136 8.80076C13.6091 8.38667 12.5143 8.49469 12.5143 8.49469Z"/><rect width="3.12" height="1.5" x="3" y="7.25" fill="#000"/><rect width="3.12" height="1.5" x="6.88" y="7.25" fill="#000"/><rect width="2.112" height="1.5" x="4.008" y="5.031" fill="#000"/><rect width="2.12" height="1.5" x="6.88" y="5.031" fill="#000"/><rect width="2.12" height="1.5" x="6.88" y="2.821" fill="#000"/></svg>