<svg xmlns="http://www.w3.org/2000/svg" width="16" height="16" fill="none" viewBox="0 0 16 16"><path stroke="#000" stroke-linecap="round" stroke-linejoin="round" stroke-width="1.2" d="M7 3C7.66045 3 8.33955 3 9 3"/><path stroke="#000" stroke-linecap="round" stroke-linejoin="round" stroke-width="1.2" d="M11 4C11.3949 4.26602 11.7345 4.60558 12 5"/><path stroke="#000" stroke-linecap="round" stroke-linejoin="round" stroke-width="1.2" d="M13 7C13 7.66045 13 8.33955 13 9"/><path stroke="#000" stroke-linecap="round" stroke-linejoin="round" stroke-width="1.2" d="M12 11C11.734 11.3949 11.3944 11.7345 11 12"/><path stroke="#000" stroke-linecap="round" stroke-linejoin="round" stroke-width="1.2" d="M9 13C8.33954 13 7.66046 13 7 13"/><path stroke="#000" stroke-linecap="round" stroke-linejoin="round" stroke-width="1.2" d="M5 12C4.6051 11.734 4.26554 11.3944 4 11"/><path stroke="#000" stroke-linecap="round" stroke-linejoin="round" stroke-width="1.2" d="M3 9C3 8.33955 3 7.66045 3 7"/><path stroke="#000" stroke-linecap="round" stroke-linejoin="round" stroke-width="1.2" d="M4 5C4.26602 4.6051 4.60558 4.26554 5 4"/><path stroke="#000" stroke-linecap="round" stroke-linejoin="round" stroke-width="1.2" d="M8.00016 8.66665C8.36835 8.66665 8.66683 8.36817 8.66683 7.99998C8.66683 7.63179 8.36835 7.33331 8.00016 7.33331C7.63197 7.33331 7.3335 7.63179 7.3335 7.99998C7.3335 8.36817 7.63197 8.66665 8.00016 8.66665Z"/></svg>